<?xml version="1.0" standalone="no"?><!DOCTYPE svg PUBLIC "-//W3C//DTD SVG 1.1//EN" "http://www.w3.org/Graphics/SVG/1.1/DTD/svg11.dtd"><svg t="1707117068827" class="icon" viewBox="0 0 1024 1024" version="1.1" xmlns="http://www.w3.org/2000/svg" p-id="4444" xmlns:xlink="http://www.w3.org/1999/xlink" width="200" height="200"><path d="M859.029148 276.074852h-87.636591a21.023165 21.023165 0 1 1 0-42.041878h21.584139a37.371548 37.371548 0 0 0 0-74.743096h-195.454887a37.371548 37.371548 0 0 0 0 74.743096h40.069565a21.023165 21.023165 0 0 1 0 42.041878h-156.676452c-31.3344 0-56.738504 25.399652-56.738505 56.738505 0 31.329948 25.404104 56.734052 56.738505 56.734052h378.118678c31.3344 0 56.738504-25.404104 56.738504-56.734052-0.004452-31.338852-25.408557-56.738504-56.742956-56.738505zM546.691339 827.093704h-67.183304a20.609113 20.609113 0 1 1 0-41.218226h21.147826a36.641391 36.641391 0 0 0 36.650296-36.650295 36.641391 36.641391 0 0 0-36.650296-36.641392H237.314226a36.641391 36.641391 0 0 0-36.641391 36.641392 36.641391 36.641391 0 0 0 36.641391 36.650295H348.293565a20.609113 20.609113 0 1 1 0 41.218226H290.259478c-30.724452 0-55.629913 24.909913-55.629913 55.638818 0 30.715548 24.905461 55.629913 55.629913 55.629913h256.431861c30.728904 0 55.634365-24.914365 55.634365-55.629913 0-30.728904-24.905461-55.638817-55.634365-55.638818z" fill="#FBF0E2" p-id="4445"></path><path d="M518.157357 885.853496l9.554365 9.558817-9.554365 9.558817-9.558818-9.558817zM518.152904 931.657461l-9.558817-9.558818 9.558817-9.558817 9.554366 9.558817zM521.919443 908.751026l9.558818-9.554365 9.554365 9.554365-9.554365 9.558817zM495.24647 908.751026l9.558817-9.554365 9.554365 9.554365-9.554365 9.558817z" fill="#F5B158" p-id="4446"></path><path d="M810.006261 433.788661l7.858087 7.858087-7.858087 7.862539-7.862539-7.862539zM810.010713 471.462957l-7.862539-7.86254 7.862539-7.858087 7.858087 7.858087zM813.109426 452.630261l7.862539-7.858087 7.858087 7.862539-7.862539 7.858087zM791.178017 452.625809l7.858087-7.853635 7.862539 7.862539-7.862539 7.853635z" fill="#D04E39" p-id="4447"></path><path d="M264.957774 209.541565l7.862539 7.862539-7.862539 7.858087-7.858087-7.858087zM264.962226 247.206957l-7.862539-7.86254 7.862539-7.862539 7.858087 7.862539zM268.065391 228.374261l7.862539-7.858087 7.858087 7.862539-7.862539 7.858087zM246.133983 228.369809l7.858087-7.853635 7.862539 7.862539-7.862539 7.853635z" fill="#D04E39" p-id="4448"></path><path d="M827.961878 711.23033a14.518539 14.518539 0 0 1-8.686191 18.601183l-391.087861 142.077774a14.522991 14.522991 0 0 1-18.605635-8.690644L218.526052 337.292243a14.509635 14.509635 0 0 1 8.686191-18.592278l391.092314-142.077774a14.514087 14.514087 0 0 1 18.59673 8.681739l191.060591 525.9264z" fill="#D04E39" p-id="4449"></path><path d="M423.232557 883.912348a25.720209 25.720209 0 0 1-24.112974-16.900452L208.063443 341.089948a25.444174 25.444174 0 0 1 0.868174-19.607374 25.466435 25.466435 0 0 1 14.482922-13.245217l391.087861-142.077774a25.631165 25.631165 0 0 1 8.757426-1.544905 25.711304 25.711304 0 0 1 24.099617 16.891548l191.060592 525.921948c2.337391 6.433391 2.034643 13.401043-0.863722 19.607374s-8.045078 10.91673-14.487374 13.254122l-391.083409 142.077773a25.502052 25.502052 0 0 1-8.752973 1.544905zM623.259826 186.875548a3.428174 3.428174 0 0 0-1.162017 0.209252L231.0144 329.162574a3.330226 3.330226 0 0 0-1.914435 1.749704 3.299061 3.299061 0 0 0-0.111304 2.582261l191.056139 525.9264c0.743513 2.056904 2.809322 2.582261 4.349774 2.025739l391.083409-142.073321a3.348035 3.348035 0 0 0 1.914434-1.749705 3.31687 3.31687 0 0 0 0.111305-2.586713L626.438678 189.106087a3.397009 3.397009 0 0 0-3.178852-2.230539z" fill="#A53A2A" p-id="4450"></path><path d="M445.324243 836.603548a25.720209 25.720209 0 0 1-24.104069-16.896L255.376696 363.190539a25.461983 25.461983 0 0 1 0.863721-19.607374 25.484243 25.484243 0 0 1 14.482922-13.254122l321.682922-116.856208a25.622261 25.622261 0 0 1 8.761878-1.549357 25.720209 25.720209 0 0 1 24.099618 16.887096l165.843478 456.521461c2.337391 6.437843 2.030191 13.401043-0.868174 19.607374s-8.045078 10.91673-14.487374 13.258574l-321.674017 116.856208a25.493148 25.493148 0 0 1-8.757427 1.549357z m155.843896-602.414748a3.361391 3.361391 0 0 0-1.157565 0.209252L278.327652 351.254261a3.330226 3.330226 0 0 0-1.914435 1.749704 3.312417 3.312417 0 0 0-0.111304 2.586713l165.843478 456.521461c0.743513 2.052452 2.800417 2.586713 4.34087 2.025739l321.678469-116.860661a3.321322 3.321322 0 0 0 1.914435-1.754156 3.370296 3.370296 0 0 0 0.115757-2.586713l-165.843479-456.517009a3.410365 3.410365 0 0 0-3.183304-2.230539z" fill="#A53A2A" p-id="4451"></path><path d="M472.22873 509.91193a124.936904 124.936904 0 0 1-88.406817-36.690365c-48.092383 8.249878-95.712835-19.041948-112.604383-65.536a11.125983 11.125983 0 1 1 20.920766-7.599861c13.775026 37.919165 53.711026 59.489948 92.916869 50.171548a11.117078 11.117078 0 0 1 10.823235 3.356939c28.30247 31.258713 72.178643 42.14873 111.785183 27.763757 39.606539-14.389426 66.261704-50.910609 67.895652-93.032626a11.130435 11.130435 0 0 1 6.144-9.527652c36.035896-18.013496 52.816139-60.193391 39.045565-98.108105a11.125983 11.125983 0 1 1 20.920765-7.599861c16.891548 46.485148-2.11033 97.983443-44.276869 122.523826-4.327513 48.47527-35.995826 89.911652-82.1248 106.665183a126.027687 126.027687 0 0 1-43.039166 7.613217z" fill="#A53A2A" p-id="4452"></path><path d="M524.029774 515.103165m-99.826644 0a99.826643 99.826643 0 1 0 199.653287 0 99.826643 99.826643 0 1 0-199.653287 0Z" fill="#ED9C3E" p-id="4453"></path><path d="M524.038678 626.086957c-46.498504 0-88.415722-29.379896-104.301078-73.100244-20.8896-57.50873 8.899896-121.286122 66.404174-142.180174a110.583096 110.583096 0 0 1 37.874643-6.691617c46.498504 0 88.415722 29.375443 104.301079 73.100243 20.8896 57.499826-8.895443 121.28167-66.399722 142.175722a110.609809 110.609809 0 0 1-37.879096 6.69607z m-0.022261-199.711166c-10.30233 0-20.488904 1.798678-30.274782 5.355966-45.968696 16.700104-69.778922 67.6864-53.08327 113.655095 12.702052 34.954017 46.204661 58.439235 83.380313 58.439235 10.30233 0 20.493357-1.80313 30.279235-5.355965 45.964243-16.700104 69.778922-67.6864 53.078817-113.650644-12.702052-34.95847-46.209113-58.443687-83.380313-58.443687z" fill="#A53A2A" p-id="4454"></path><path d="M461.138365 496.501983a6.678261 6.678261 0 0 1-2.283965-12.955826l24.188661-8.788592a6.678261 6.678261 0 0 1 4.563478 12.550678l-24.188661 8.788592a6.607026 6.607026 0 0 1-2.279513 0.405148z" fill="#A53A2A" p-id="4455"></path><path d="M498.652383 482.873878a6.678261 6.678261 0 0 1-2.283966-12.955826l57.379618-20.845078a6.678261 6.678261 0 0 1 4.559026 12.550678l-57.375165 20.845078a6.607026 6.607026 0 0 1-2.279513 0.405148zM467.429287 513.825391a6.678261 6.678261 0 0 1-2.283965-12.955826l24.188661-8.788591a6.678261 6.678261 0 0 1 4.563478 12.550678l-24.188661 8.788591a6.691617 6.691617 0 0 1-2.279513 0.405148z" fill="#A53A2A" p-id="4456"></path><path d="M512.427409 580.67033a6.678261 6.678261 0 0 1-6.277566-4.398747l-26.699686-73.492035a6.678261 6.678261 0 0 1 12.550678-4.563478l26.704139 73.496487a6.678261 6.678261 0 0 1-6.277565 8.957773z" fill="#A53A2A" p-id="4457"></path><path d="M476.863443 529.995687a6.678261 6.678261 0 0 1-2.283965-12.955826l21.045426-7.639931a6.678261 6.678261 0 1 1 4.563479 12.550679l-21.045426 7.644382c-0.747965 0.276035-1.522643 0.400696-2.279514 0.400696z" fill="#A53A2A" p-id="4458"></path><path d="M497.272209 586.173217a6.678261 6.678261 0 0 1-6.277566-4.398747l-20.408765-56.177531a6.678261 6.678261 0 0 1 12.550679-4.559026l20.408765 56.17753a6.678261 6.678261 0 0 1-6.273113 8.957774zM510.165704 514.568904a6.678261 6.678261 0 0 1-6.277565-4.398747l-5.654261-15.5648a6.678261 6.678261 0 0 1 12.555131-4.559027l5.654261 15.5648a6.678261 6.678261 0 0 1-6.277566 8.957774z" fill="#A53A2A" p-id="4459"></path><path d="M504.511443 499.008557a6.678261 6.678261 0 0 1-2.283965-12.955827l57.375165-20.84953a6.678261 6.678261 0 1 1 4.567931 12.550678l-57.379617 20.849531a6.691617 6.691617 0 0 1-2.279514 0.405148z" fill="#A53A2A" p-id="4460"></path><path d="M567.545322 493.723826a6.687165 6.687165 0 0 1-6.277565-4.398748l-5.654261-15.5648a6.678261 6.678261 0 0 1 12.55513-4.559026l5.654261 15.5648a6.678261 6.678261 0 0 1-6.277565 8.957774z" fill="#A53A2A" p-id="4461"></path><path d="M510.165704 514.568904a6.678261 6.678261 0 0 1-2.283965-12.955826l57.375165-20.84953a6.678261 6.678261 0 0 1 4.567931 12.550678l-57.379618 20.849531a6.500174 6.500174 0 0 1-2.279513 0.405147zM531.642991 573.68487a6.678261 6.678261 0 0 1-6.277565-4.398748l-15.026087-41.374052a6.678261 6.678261 0 1 1 12.555131-4.559027l15.030539 41.374053a6.678261 6.678261 0 0 1-6.282018 8.957774z" fill="#A53A2A" p-id="4462"></path><path d="M531.642991 573.68487a6.678261 6.678261 0 0 1-2.279513-12.955827l57.379618-20.845078a6.678261 6.678261 0 0 1 4.559026 12.555131l-57.379618 20.845078c-0.752417 0.276035-1.522643 0.400696-2.279513 0.400696z" fill="#A53A2A" p-id="4463"></path><path d="M589.022609 552.844243a6.678261 6.678261 0 0 1-6.277566-4.398747l-15.030539-41.374053a6.678261 6.678261 0 0 1 12.555131-4.563478l15.030539 41.378505a6.678261 6.678261 0 0 1-6.277565 8.957773z" fill="#A53A2A" p-id="4464"></path><path d="M516.612452 532.31527a6.678261 6.678261 0 0 1-2.283965-12.955827l57.379617-20.845078a6.678261 6.678261 0 0 1 4.567931 12.550678l-57.379618 20.849531c-0.75687 0.271583-1.527096 0.400696-2.283965 0.400696zM524.332522 553.556591a6.678261 6.678261 0 0 1-2.279513-12.955826l57.379617-20.845078a6.678261 6.678261 0 0 1 4.559026 12.55513l-57.379617 20.845079a6.633739 6.633739 0 0 1-2.279513 0.400695z" fill="#A53A2A" p-id="4465"></path><path d="M559.785183 562.509913a6.678261 6.678261 0 0 1-6.277566-4.398748l-13.828452-38.079443a6.678261 6.678261 0 1 1 12.555131-4.554574l13.828452 38.079443a6.678261 6.678261 0 0 1-6.277565 8.953322z" fill="#A53A2A" p-id="4466"></path><path d="M301.278609 711.190261l7.306017 7.301565-7.301565 7.306017-7.306018-7.301565zM301.283061 746.206609l-7.301565-7.301566 7.306017-7.310469 7.301565 7.301565zM304.172522 728.687304l7.310469-7.310469 7.306018 7.314922-7.31047 7.301565zM283.781565 728.691757l7.306018-7.301566 7.306017 7.306018-7.301565 7.301565z" fill="#F5B158" p-id="4467"></path></svg>